<?xml version="1.0" encoding="UTF-8"?>
<svg width="24px" height="24px" viewBox="0 0 24 24" version="1.1" xmlns="http://www.w3.org/2000/svg" xmlns:xlink="http://www.w3.org/1999/xlink">
    <title>06_Common_Feedback/common_feedback_warning</title>
    <g id="06_Common_Feedback/common_feedback_warning" stroke="none" stroke-width="1" fill="none" fill-rule="evenodd">
        <rect id="矩形" x="0" y="0" width="24" height="24"></rect>
        <path d="M1.82374917,20.5 L22.1761537,20.5 L11.9999514,3.13252855 L1.82374917,20.5 Z M12.7603045,1.46310712 L23.8464253,20.3835139 C24.1263796,20.8613049 24.0129057,21.5068484 23.5929743,21.8253757 C23.4428616,21.9392396 23.2664852,22 23.0860722,22 L0.913830641,22 C0.409135914,22 0,21.5344919 0,20.9602586 C0,20.7549877 0.0534024601,20.5543096 0.153477587,20.3835139 L11.2395984,1.46310712 C11.5195527,0.985316137 12.0869221,0.85620743 12.5068535,1.17473475 C12.6072399,1.25088006 12.6933802,1.34888915 12.7603045,1.46310712 Z M12,8 C12.4142136,8 12.75,8.33578644 12.75,8.75 L12.75,15.25 C12.75,15.6642136 12.4142136,16 12,16 C11.5857864,16 11.25,15.6642136 11.25,15.25 L11.25,8.75 C11.25,8.33578644 11.5857864,8 12,8 Z M12,17 C12.5522847,17 13,17.4477153 13,18 C13,18.5522847 12.5522847,19 12,19 C11.4477153,19 11,18.5522847 11,18 C11,17.4477153 11.4477153,17 12,17 Z" id="Color" fill="#FF952C" fill-rule="nonzero"></path>
    </g>
</svg>