<?xml version="1.0" encoding="UTF-8"?>
<svg width="24px" height="24px" viewBox="0 0 24 24" version="1.1" xmlns="http://www.w3.org/2000/svg" xmlns:xlink="http://www.w3.org/1999/xlink">
    <title>06_Common_Feedback/common_feedback_error</title>
    <g id="06_Common_Feedback/common_feedback_error" stroke="none" stroke-width="1" fill="none" fill-rule="evenodd">
        <rect id="矩形" x="0" y="0" width="24" height="24"></rect>
        <path d="M12,22.5 C17.7989899,22.5 22.5,17.7989899 22.5,12 C22.5,6.20101013 17.7989899,1.5 12,1.5 C6.20101013,1.5 1.5,6.20101013 1.5,12 C1.5,17.7989899 6.20101013,22.5 12,22.5 Z M12,24 C5.372583,24 0,18.627417 0,12 C0,5.372583 5.372583,0 12,0 C18.627417,0 24,5.372583 24,12 C24,18.627417 18.627417,24 12,24 Z M12.0426407,13.1033009 L8.33033009,16.8156115 C8.03743687,17.1085047 7.56256313,17.1085047 7.26966991,16.8156115 C6.9767767,16.5227182 6.9767767,16.0478445 7.26966991,15.7549513 L10.9819805,12.0426407 L7.26966991,8.33033009 C6.9767767,8.03743687 6.9767767,7.56256313 7.26966991,7.26966991 C7.56256313,6.9767767 8.03743687,6.9767767 8.33033009,7.26966991 L12.0426407,10.9819805 L15.7549513,7.26966991 C16.0478445,6.9767767 16.5227182,6.9767767 16.8156115,7.26966991 C17.1085047,7.56256313 17.1085047,8.03743687 16.8156115,8.33033009 L13.1033009,12.0426407 L16.8156115,15.7549513 C17.1085047,16.0478445 17.1085047,16.5227182 16.8156115,16.8156115 C16.5227182,17.1085047 16.0478445,17.1085047 15.7549513,16.8156115 L12.0426407,13.1033009 Z" id="Color" fill="#E81123" fill-rule="nonzero"></path>
    </g>
</svg>