<?xml version="1.0" encoding="UTF-8"?>
<svg width="24px" height="24px" viewBox="0 0 24 24" version="1.1" xmlns="http://www.w3.org/2000/svg" xmlns:xlink="http://www.w3.org/1999/xlink">
    <title>06_Common_Feedback/common_feedback_success</title>
    <g id="06_Common_Feedback/common_feedback_success" stroke="none" stroke-width="1" fill="none" fill-rule="evenodd">
        <rect id="矩形" x="0" y="0" width="24" height="24"></rect>
        <path d="M12,22.5 C17.7989899,22.5 22.5,17.7989899 22.5,12 C22.5,6.20101013 17.7989899,1.5 12,1.5 C6.20101013,1.5 1.5,6.20101013 1.5,12 C1.5,17.7989899 6.20101013,22.5 12,22.5 Z M12,24 C5.372583,24 0,18.627417 0,12 C0,5.372583 5.372583,0 12,0 C18.627417,0 24,5.372583 24,12 C24,18.627417 18.627417,24 12,24 Z M10.2426407,14.613961 L17.1369318,7.71966991 C17.429825,7.4267767 17.9046988,7.4267767 18.197592,7.71966991 C18.4904852,8.01256313 18.4904852,8.48743687 18.197592,8.78033009 L10.7729708,16.2049513 C10.4800776,16.4978445 10.0052038,16.4978445 9.7123106,16.2049513 L5.46966991,11.9623106 C5.1767767,11.6694174 5.1767767,11.1945436 5.46966991,10.9016504 C5.76256313,10.6087572 6.23743687,10.6087572 6.53033009,10.9016504 L10.2426407,14.613961 Z" id="Color" fill="#02BF0F" fill-rule="nonzero"></path>
    </g>
</svg>