<?xml version="1.0" encoding="UTF-8"?>
<svg width="28px" height="28px" viewBox="0 0 28 28" version="1.1" xmlns="http://www.w3.org/2000/svg" xmlns:xlink="http://www.w3.org/1999/xlink">
    <title>wancheng</title>
    <defs>
        <path d="M14,0 C21.7319865,0 28,6.2680135 28,14 C28,21.7319865 21.7319865,28 14,28 C6.2680135,28 0,21.7319865 0,14 C0,6.2680135 6.2680135,0 14,0 Z M14,1 C6.82029825,1 1,6.82029825 1,14 C1,21.1797017 6.82029825,27 14,27 C21.1797017,27 27,21.1797017 27,14 C27,6.82029825 21.1797017,1 14,1 Z M18.4193733,10.2711953 C18.7809671,9.90960156 19.367226,9.90960156 19.7288064,10.2711953 C20.0904001,10.6327891 20.0904001,11.219048 19.728793,11.5806417 L19.728793,11.5806417 L13.181601,18.1278203 C12.8299715,18.4794364 12.2659849,18.4890257 11.9026367,18.1568025 C11.8927126,18.147856 11.8825742,18.1382533 11.8721546,18.1278203 L8.27119029,14.5268694 C7.90959654,14.1652891 7.90960993,13.5790301 8.27119029,13.2174364 C8.63278404,12.8558426 9.21904297,12.8558426 9.58063672,13.2174364 L9.58063672,13.2174364 L12.5268778,16.1636775 Z" id="path-1"></path>
    </defs>
    <g id="wancheng" stroke="none" stroke-width="1" fill="none" fill-rule="evenodd">
        <g id="icon">
            <mask id="mask-2" fill="white">
                <use xlink:href="#path-1"></use>
            </mask>
            <use id="Combined-Shape" fill="#405FFE" fill-rule="nonzero" xlink:href="#path-1"></use>
        </g>
    </g>
</svg>