<?xml version="1.0" encoding="UTF-8"?>
<svg width="24px" height="24px" viewBox="0 0 24 24" version="1.1" xmlns="http://www.w3.org/2000/svg" xmlns:xlink="http://www.w3.org/1999/xlink">
    <title>01_Common_Btn/1_Common/common_add_sm</title>
    <g id="01_Common_Btn/1_Common/common_add_sm" stroke="none" stroke-width="1" fill="none" fill-rule="evenodd">
        <rect id="矩形" x="0" y="0" width="24" height="24"></rect>
        <path d="M16.5,12 L12,12 L12,16.5 C12,16.8 11.8,17 11.5,17 C11.2,17 11,16.8 11,16.5 L11,12 L6.5,12 C6.2,12 6,11.8 6,11.5 C6,11.2 6.2,11 6.5,11 L11,11 L11,6.5 C11,6.2 11.2,6 11.5,6 C11.8,6 12,6.2 12,6.5 L12,11 L16.5,11 C16.8,11 17,11.2 17,11.5 C17,11.8 16.8,12 16.5,12 Z" id="Color" fill="#000000" fill-rule="nonzero"></path>
    </g>
</svg>