<?xml version="1.0" encoding="UTF-8"?>
<svg width="24px" height="24px" viewBox="0 0 24 24" version="1.1" xmlns="http://www.w3.org/2000/svg" xmlns:xlink="http://www.w3.org/1999/xlink">
    <title>01_Common_Btn/1_Common/common_angles_up_sm</title>
    <g id="01_Common_Btn/1_Common/common_angles_up_sm" stroke="none" stroke-width="1" fill="none" fill-rule="evenodd">
        <rect id="矩形" x="0" y="0" width="24" height="24"></rect>
        <path d="M16.8326174,16.8354526 C16.8293704,16.8387231 16.8260825,16.84195 16.8227548,16.8451325 C16.60962,17.0489631 16.2771255,17.0354462 16.0801074,16.8149415 L12.1142951,12.3763641 L7.91028231,16.8358097 C7.90711171,16.8391729 7.90389913,16.8424936 7.90064539,16.8457707 C7.69253995,17.0553736 7.35959953,17.050754 7.15700215,16.8354526 C6.94752844,16.6128437 6.94768555,16.2580812 7.15735634,16.0356709 L11.7509658,11.1629571 C11.7572546,11.1562862 11.7637092,11.1497849 11.7703232,11.1434596 C11.9819935,10.9410295 12.3122035,10.9544536 12.5078678,11.1734431 L16.8529626,16.0365173 C17.0566582,16.2644955 17.0476335,16.6188872 16.8326174,16.8354526 Z M16.8326174,12.8354526 C16.8293704,12.8387231 16.8260825,12.84195 16.8227548,12.8451325 C16.60962,13.0489631 16.2771255,13.0354462 16.0801074,12.8149415 L12.1142951,8.37636412 L7.91028231,12.8358097 C7.90711171,12.8391729 7.90389913,12.8424936 7.90064539,12.8457707 C7.69253995,13.0553736 7.35959953,13.050754 7.15700215,12.8354526 C6.94752844,12.6128437 6.94768555,12.2580812 7.15735634,12.0356709 L11.7509658,7.16295711 C11.7572546,7.15628623 11.7637092,7.14978489 11.7703232,7.14345962 C11.9819935,6.94102951 12.3122035,6.95445356 12.5078678,7.1734431 L16.8529626,12.0365173 C17.0566582,12.2644955 17.0476335,12.6188872 16.8326174,12.8354526 Z" id="Color" fill="#000000" fill-rule="nonzero"></path>
    </g>
</svg>