<?xml version="1.0" encoding="UTF-8"?>
<svg width="24px" height="24px" viewBox="0 0 24 24" version="1.1" xmlns="http://www.w3.org/2000/svg" xmlns:xlink="http://www.w3.org/1999/xlink">
    <title>01_Common_Btn/1_Common/common_angle_line_left</title>
    <g id="01_Common_Btn/1_Common/common_angle_line_left" stroke="none" stroke-width="1" fill="none" fill-rule="evenodd">
        <rect id="矩形" x="0" y="0" width="24" height="24"></rect>
        <path d="M6.5,20 C6.224,20 6,19.776 6,19.5 L6,4.5 C6,4.224 6.224,4 6.5,4 C6.776,4 7,4.224 7,4.5 L7,19.5 C7,19.776 6.776,20 6.5,20 Z M17.8401021,4.87455622 L10.1453171,11.9965822 L17.8398973,19.1254438 C18.0365417,19.3090805 18.0542541,19.6254227 17.8794591,19.832014 C17.704664,20.0386053 17.4035528,20.0572137 17.2069083,19.873577 L9.19187747,12.4454622 C9.16721033,12.4215015 9.16721033,12.4215015 9.1444033,12.3955866 C8.93464922,12.1476771 8.95590413,11.7680663 9.19187747,11.5477023 L17.2071132,4.12642302 C17.4037576,3.94278633 17.7048688,3.9613947 17.8796639,4.16798598 C18.054459,4.37457726 18.0367466,4.69091953 17.8401021,4.87455622 Z" id="Color" fill="#000000" fill-rule="nonzero"></path>
    </g>
</svg>