<?xml version="1.0" encoding="UTF-8"?>
<svg width="24px" height="24px" viewBox="0 0 24 24" version="1.1" xmlns="http://www.w3.org/2000/svg" xmlns:xlink="http://www.w3.org/1999/xlink">
    <title>01_Common_Btn/1_Common/common_angles_down</title>
    <g id="01_Common_Btn/1_Common/common_angles_down" stroke="none" stroke-width="1" fill="none" fill-rule="evenodd">
        <rect id="矩形" x="0" y="0" width="24" height="24"></rect>
        <path d="M6.35355339,12.3535534 C6.15829124,12.5488155 5.84170876,12.5488155 5.64644661,12.3535534 C5.45118446,12.1582912 5.45118446,11.8417088 5.64644661,11.6464466 L11.6464466,5.64644661 C11.8417088,5.45118446 12.1582912,5.45118446 12.3535534,5.64644661 L18.3535534,11.6464466 C18.5488155,11.8417088 18.5488155,12.1582912 18.3535534,12.3535534 C18.1582912,12.5488155 17.8417088,12.5488155 17.6464466,12.3535534 L12,6.70710678 L6.35355339,12.3535534 Z M6.35355339,18.3535534 C6.15829124,18.5488155 5.84170876,18.5488155 5.64644661,18.3535534 C5.45118446,18.1582912 5.45118446,17.8417088 5.64644661,17.6464466 L11.6464466,11.6464466 C11.8417088,11.4511845 12.1582912,11.4511845 12.3535534,11.6464466 L18.3535534,17.6464466 C18.5488155,17.8417088 18.5488155,18.1582912 18.3535534,18.3535534 C18.1582912,18.5488155 17.8417088,18.5488155 17.6464466,18.3535534 L12,12.7071068 L6.35355339,18.3535534 Z" id="Color" fill="#000000" fill-rule="nonzero" transform="translate(12.000000, 12.000000) scale(1, -1) translate(-12.000000, -12.000000) "></path>
    </g>
</svg>