<?xml version="1.0" encoding="UTF-8"?>
<svg width="24px" height="24px" viewBox="0 0 24 24" version="1.1" xmlns="http://www.w3.org/2000/svg" xmlns:xlink="http://www.w3.org/1999/xlink">
    <title>01_Common_Btn/1_Common/common_arrow_left</title>
    <g id="01_Common_Btn/1_Common/common_arrow_left" stroke="none" stroke-width="1" fill="none" fill-rule="evenodd">
        <rect id="矩形" x="0" y="0" width="24" height="24"></rect>
        <path d="M6.69224614,11.0103424 L18.5000131,11.0103424 C18.7761482,11.0103424 19,11.2362642 19,11.5149529 C19,11.7936416 18.7761482,12.0195634 18.5000131,12.0195634 L6.72187793,12.0195634 L10.8031487,16.1385759 C10.9984058,16.3356386 10.9984058,16.6551403 10.8031487,16.852203 C10.6078917,17.0492657 10.2913175,17.0492657 10.0960605,16.852203 L5.14644277,11.8568135 C4.95118574,11.6597509 4.95118574,11.3402491 5.14644277,11.1431865 L10.0960605,6.147797 C10.2913175,5.95073433 10.6078917,5.95073433 10.8031487,6.147797 C10.9984058,6.34485968 10.9984058,6.6643614 10.8031487,6.86142407 L6.69224614,11.0103424 Z" id="Color" fill="#000000" fill-rule="nonzero"></path>
    </g>
</svg>