<?xml version="1.0" encoding="UTF-8"?>
<svg width="24px" height="24px" viewBox="0 0 24 24" version="1.1" xmlns="http://www.w3.org/2000/svg" xmlns:xlink="http://www.w3.org/1999/xlink">
    <title>01_Common_Btn/1_Common/common_arrow_right</title>
    <g id="01_Common_Btn/1_Common/common_arrow_right" stroke="none" stroke-width="1" fill="none" fill-rule="evenodd">
        <rect id="矩形" x="0" y="0" width="24" height="24"></rect>
        <path d="M17.3077539,11.9896576 L5.49998689,11.9896576 C5.22385176,11.9896576 5,11.7637358 5,11.4850471 C5,11.2063584 5.22385176,10.9804366 5.49998689,10.9804366 L17.2781221,10.9804366 L13.1968513,6.86142407 C13.0015942,6.6643614 13.0015942,6.34485968 13.1968513,6.147797 C13.3921083,5.95073433 13.7086825,5.95073433 13.9039395,6.147797 L18.8535572,11.1431865 C19.0488143,11.3402491 19.0488143,11.6597509 18.8535572,11.8568135 L13.9039395,16.852203 C13.7086825,17.0492657 13.3921083,17.0492657 13.1968513,16.852203 C13.0015942,16.6551403 13.0015942,16.3356386 13.1968513,16.1385759 L17.3077539,11.9896576 L17.3077539,11.9896576 Z" id="Color" fill="#000000" fill-rule="nonzero"></path>
    </g>
</svg>