<?xml version="1.0" encoding="UTF-8"?>
<svg width="24px" height="24px" viewBox="0 0 24 24" version="1.1" xmlns="http://www.w3.org/2000/svg" xmlns:xlink="http://www.w3.org/1999/xlink">
    <title>01_Common_Btn/2_Infrequently/common_assign_to</title>
    <g id="01_Common_Btn/2_Infrequently/common_assign_to" stroke="none" stroke-width="1" fill="none" fill-rule="evenodd">
        <rect id="矩形" x="0" y="0" width="24" height="24"></rect>
        <path d="M18.4601673,17.0009539 C18.7575514,17.0009539 18.9986288,17.2248115 18.9986288,17.5009539 C18.9986288,17.7464138 18.8081479,17.9505623 18.5569564,17.9928982 L18.4601673,18.0009539 L7.69093651,18.0009539 C7.39355241,18.0009539 7.15247497,17.7770963 7.15247497,17.5009539 C7.15247497,17.255494 7.34295591,17.0513455 7.59414737,17.0090096 L7.69093651,17.0009539 L18.4601673,17.0009539 Z M18.4601673,14.0009539 C18.7575514,14.0009539 18.9986288,14.2248115 18.9986288,14.5009539 C18.9986288,14.7464138 18.8081479,14.9505623 18.5569564,14.9928982 L18.4601673,15.0009539 L7.69093651,15.0009539 C7.39355241,15.0009539 7.15247497,14.7770963 7.15247497,14.5009539 C7.15247497,14.255494 7.34295591,14.0513455 7.59414737,14.0090096 L7.69093651,14.0009539 L18.4601673,14.0009539 Z M12.9986288,5 L15.9986288,8 L12.9986288,11 L12.998,8.324 L12.9170631,8.30976533 C12.6100093,8.26173464 12.297569,8.23736265 11.9816821,8.23736265 C8.83714491,8.23736265 6.23192005,10.6654346 5.99862882,13.7826793 C5.97802025,14.0580516 5.73808036,14.2645784 5.46270807,14.2439699 C5.18733578,14.2233613 4.98080898,13.9834214 5.00141754,13.7080491 C5.27369487,10.0698709 8.31286381,7.23736265 11.9816821,7.23736265 C12.2971058,7.23736265 12.6098198,7.25826018 12.9183142,7.29953779 L12.998,7.312 L12.9986288,5 Z M12.998,7.312 L12.998,8.324 L13.2222497,8.36565584 C13.3233321,8.38689714 13.4237442,8.41074076 13.5234142,8.43716029 L13.8201255,8.52412019 C14.0830144,8.60864265 14.3646469,8.46404809 14.4491694,8.2011592 C14.5336918,7.93827032 14.3890973,7.65663778 14.1262084,7.57211533 C13.8316504,7.47741081 13.5308597,7.4023964 13.2253461,7.34758958 L12.998,7.312 Z" id="Color" fill="#000000" fill-rule="nonzero"></path>
    </g>
</svg>