<?xml version="1.0" encoding="UTF-8"?>
<svg width="24px" height="24px" viewBox="0 0 24 24" version="1.1" xmlns="http://www.w3.org/2000/svg" xmlns:xlink="http://www.w3.org/1999/xlink">
    <title>01_Common_Btn/1_Common/common_edit</title>
    <g id="01_Common_Btn/1_Common/common_edit" stroke="none" stroke-width="1" fill="none" fill-rule="evenodd">
        <rect id="矩形" x="0" y="0" width="24" height="24"></rect>
        <path d="M9.973,15.2832202 L7,16.0002202 L7.715,13.0232202 L15.337,5.39022017 C15.888,4.83722017 16.948,4.88222017 17.524,5.46022017 C17.798,5.73322017 17.97,6.12122017 17.997,6.52022017 C18.025,6.95522017 17.879,7.36622017 17.594,7.65022017 L9.973,15.2832202 Z M9.433,14.3182202 L16.841,6.89722017 C16.909,6.82922017 16.943,6.71822017 16.935,6.59022017 C16.925,6.44622017 16.864,6.30622017 16.772,6.21322017 C16.672,6.11122017 16.512,6.04922017 16.358,6.04922017 C16.292,6.04922017 16.171,6.06122017 16.089,6.14322017 L8.679,13.5632202 L8.441,14.5552202 L9.433,14.3182202 Z M19,17.5 C19,17.776 18.762,18 18.469,18 L4.531,18 C4.238,18 4,17.776 4,17.5 C4,17.224 4.238,17 4.531,17 L18.469,17 C18.762,17 19,17.224 19,17.5 Z" id="Color" fill="#000000" fill-rule="nonzero"></path>
    </g>
</svg>