<?xml version="1.0" encoding="UTF-8"?>
<svg width="24px" height="24px" viewBox="0 0 24 24" version="1.1" xmlns="http://www.w3.org/2000/svg" xmlns:xlink="http://www.w3.org/1999/xlink">
    <title>01_Common_Btn/1_Common/common_forward</title>
    <g id="01_Common_Btn/1_Common/common_forward" stroke="none" stroke-width="1" fill="none" fill-rule="evenodd">
        <rect id="矩形" x="0" y="0" width="24" height="24"></rect>
        <path d="M19.5,13 C19.7761424,13 20,13.2238576 20,13.5 L20,18 C20,18.5522847 19.5522847,19 19,19 L6,19 C5.44771525,19 5,18.5522847 5,18 L5,13.5 C5,13.2238576 5.22385763,13 5.5,13 C5.77614237,13 6,13.2238576 6,13.5 L6,18 L19,18 L19,13.5 C19,13.2238576 19.2238576,13 19.5,13 Z M16,5.21732067 L19,8.21732067 L16,11.2173207 L16.0008553,8.54056869 C15.667353,8.48361936 15.3272491,8.45468332 14.9830533,8.45468332 C11.8385161,8.45468332 9.23329123,10.8827553 9,14 C8.97939144,14.2753723 8.73945154,14.4818991 8.46407925,14.4612905 C8.18870696,14.440682 7.98218016,14.2007421 8.00278872,13.9253698 C8.27506605,10.2871915 11.314235,7.45468332 14.9830533,7.45468332 C15.3262178,7.45468332 15.666175,7.47941828 16.0009807,7.52822185 L16,5.21732067 Z" id="Color" fill="#000000" fill-rule="nonzero"></path>
    </g>
</svg>