<?xml version="1.0" encoding="UTF-8"?>
<svg width="24px" height="24px" viewBox="0 0 24 24" version="1.1" xmlns="http://www.w3.org/2000/svg" xmlns:xlink="http://www.w3.org/1999/xlink">
    <title>01_Common_Btn/1_Common/common_picture</title>
    <g id="01_Common_Btn/1_Common/common_picture" stroke="none" stroke-width="1" fill="none" fill-rule="evenodd">
        <rect id="矩形" x="0" y="0" width="24" height="24"></rect>
        <path d="M19,6 L5,6 C4.4,6 4,6.4 4,7 L4,18 C4,18.6 4.4,19 5,19 L19,19 C19.6,19 20,18.6 20,18 L20,7 C20,6.4 19.6,6 19,6 Z M19,13.9 L15.2,11.8 C15,11.7 14.8,11.7 14.6,11.8 L9.7,15.7 L7.7,14.4 C7.5,14.3 7.3,14.3 7.1,14.4 L5,16.2 L5,7 L19,7 L19,13.9 Z M5,17.4 L7.5,15.4 L11.5,18 L5,18 L5,17.4 Z M15,12.8 L19,15.1 L19,18 L13.3,18 L10.6,16.2 L15,12.8 Z M9.5,8.5 L9.5,10.5 L7.5,10.5 L7.5,8.5 L9.5,8.5 Z" id="Color" fill="#000000" fill-rule="nonzero"></path>
    </g>
</svg>