<?xml version="1.0" encoding="UTF-8"?>
<svg width="24px" height="24px" viewBox="0 0 24 24" version="1.1" xmlns="http://www.w3.org/2000/svg" xmlns:xlink="http://www.w3.org/1999/xlink">
    <title>01_Common_Btn/1_Common/common_reflash</title>
    <g id="01_Common_Btn/1_Common/common_reflash" stroke="none" stroke-width="1" fill="none" fill-rule="evenodd">
        <rect id="矩形" x="0" y="0" width="24" height="24"></rect>
        <path d="M6.20437717,14 L8.97112393,14 L5.98556197,17 L3,14 L5.18540023,14 C5.08749192,13.5153351 5.03609509,13.0136988 5.03609509,12.5 C5.03609509,8.35786438 8.37779914,5 12.5,5 C13.9678913,5 15.3368133,5.42578726 16.4911177,6.16115427 L15.7670553,6.88871823 C14.8082413,6.3238382 13.6917568,6 12.5,6 C8.92742592,6 6.03128241,8.91014913 6.03128241,12.5 C6.03128241,13.0162692 6.09118144,13.5184807 6.20437717,14 L6.20437717,14 Z M18.7956228,10.9999999 L16.0288761,10.9999999 L19.014438,7.99999992 L22,10.9999999 L19.8145998,10.9999999 C19.9125081,11.4846649 19.9639049,11.9863012 19.9639049,12.4999999 C19.9639049,16.6421356 16.6222009,19.9999999 12.5,19.9999999 C11.0321087,19.9999999 9.66318668,19.5742127 8.50888225,18.8388457 L9.23294468,18.1112818 C10.1917587,18.6761618 11.3082432,18.9999999 12.5,18.9999999 C16.0725741,18.9999999 18.9687176,16.0898509 18.9687176,12.4999999 C18.9687176,11.9837308 18.9088186,11.4815193 18.7956228,10.9999999 L18.7956228,10.9999999 Z" id="Color" fill="#000000" fill-rule="nonzero"></path>
    </g>
</svg>