<?xml version="1.0" encoding="UTF-8"?>
<svg width="24px" height="24px" viewBox="0 0 24 24" version="1.1" xmlns="http://www.w3.org/2000/svg" xmlns:xlink="http://www.w3.org/1999/xlink">
    <title>01_Common_Btn/1_Common/common_more_verti</title>
    <g id="01_Common_Btn/1_Common/common_more_verti" stroke="none" stroke-width="1" fill="none" fill-rule="evenodd">
        <rect id="矩形" x="0" y="0" width="24" height="24"></rect>
        <path d="M12,13 C11.4,13 11,12.6 11,12 C11,11.4 11.4,11 12,11 C12.6,11 13,11.4 13,12 C13,12.6 12.6,13 12,13 Z M12,18 C11.4,18 11,17.6 11,17 C11,16.4 11.4,16 12,16 C12.6,16 13,16.4 13,17 C13,17.6 12.6,18 12,18 Z M12,8 C11.4,8 11,7.6 11,7 C11,6.4 11.4,6 12,6 C12.6,6 13,6.4 13,7 C13,7.6 12.6,8 12,8 Z" id="Color" fill="#000000" fill-rule="nonzero"></path>
    </g>
</svg>