<?xml version="1.0" encoding="UTF-8"?>
<svg width="24px" height="24px" viewBox="0 0 24 24" version="1.1" xmlns="http://www.w3.org/2000/svg" xmlns:xlink="http://www.w3.org/1999/xlink">
    <title>01_Common_Btn/1_Common/common_switch</title>
    <g id="01_Common_Btn/1_Common/common_switch" stroke="none" stroke-width="1" fill="none" fill-rule="evenodd">
        <rect id="矩形" x="0" y="0" width="24" height="24"></rect>
        <path d="M9.11245252,19.8159469 L6,16.5788106 L9,16.5788106 L9,5.5 C9,5.22385763 9.22385763,5 9.5,5 C9.77614237,5 10,5.22385763 10,5.5 L10,19.5 C10,19.7761424 9.77614237,20 9.5,20 C9.34369388,20 9.20413954,19.9282771 9.11245252,19.8159469 L9.11245252,19.8159469 Z M14.8875475,5.1840531 L18,8.42118941 L15,8.42118941 L15,19.5 C15,19.7761424 14.7761424,20 14.5,20 C14.2238576,20 14,19.7761424 14,19.5 L14,5.5 C14,5.22385763 14.2238576,5 14.5,5 C14.6563061,5 14.7958605,5.07172288 14.8875475,5.1840531 L14.8875475,5.1840531 Z" id="Color" fill="#000000" fill-rule="nonzero" transform="translate(12.000000, 12.500000) rotate(90.000000) translate(-12.000000, -12.500000) "></path>
    </g>
</svg>