<?xml version="1.0" encoding="UTF-8"?>
<svg width="24px" height="24px" viewBox="0 0 24 24" version="1.1" xmlns="http://www.w3.org/2000/svg" xmlns:xlink="http://www.w3.org/1999/xlink">
    <title>01_Common_Btn/1_Common/common_telephone_f</title>
    <g id="01_Common_Btn/1_Common/common_telephone_f" stroke="none" stroke-width="1" fill="none" fill-rule="evenodd">
        <rect id="矩形" x="0" y="0" width="24" height="24"></rect>
        <path d="M13.5659953,16.0785348 L14.9844205,14.7015545 C15.3666541,14.3298549 15.9217413,14.1901476 16.4333604,14.3356838 L18.6919046,14.9708372 C19.1689139,15.105565 19.501,15.5418246 19.501,16.0370127 L19.501,18.7690127 C19.501,18.9646295 19.4236283,19.1484912 19.2814665,19.2906063 C19.1415784,19.4273152 18.9547141,19.5010553 18.7628679,19.4980872 L18.525,19.4960127 C16.7695759,19.4960127 15.0626554,19.1531619 13.4550267,18.4778537 C11.9040926,17.8250476 10.5110879,16.8900063 9.31506363,15.6991821 C8.11968333,14.5079632 7.18063704,13.1219142 6.52481029,11.579526 C5.84552011,9.98064544 5.5010663,8.28214818 5.5010663,6.5248705 L5.50613106,6.21456536 C5.51535168,5.8119318 5.83920936,5.49488193 6.23910253,5.49799095 L8.959,5.50401274 C9.45524196,5.50401274 9.89657816,5.83527948 10.0300437,6.3106421 L10.6657741,8.55324069 C10.814616,9.06051815 10.6711472,9.61882647 10.2989425,10.0001442 L8.90670741,11.4194623 C9.92354386,13.3987129 11.5794356,15.0544697 13.5659953,16.0785348 Z" id="Color" fill="#000000" fill-rule="nonzero"></path>
    </g>
</svg>