<?xml version="1.0" encoding="UTF-8"?>
<svg width="24px" height="24px" viewBox="0 0 24 24" version="1.1" xmlns="http://www.w3.org/2000/svg" xmlns:xlink="http://www.w3.org/1999/xlink">
    <title>01_Common_Btn/2_Infrequently/common_tool备份</title>
    <g id="01_Common_Btn/2_Infrequently/common_tool备份" stroke="none" stroke-width="1" fill="none" fill-rule="evenodd">
        <rect id="矩形" x="0" y="0" width="24" height="24"></rect>
        <path d="M17.0963406,4.69650666 L14.0608093,7.73203789 L16.1821297,9.85335824 L19.2177713,6.81771661 C20.3886045,8.91180184 20.0838958,11.6088367 18.3036452,13.3890873 C16.7923156,14.9004168 14.6202574,15.3483196 12.7172963,14.7327955 L8.12132034,19.3287714 C7.34027176,20.10982 6.0739418,20.10982 5.29289322,19.3287714 L4.58578644,18.6216647 C3.80473785,17.8406161 3.80473785,16.5742861 4.58578644,15.7932375 L9.18176236,11.1972616 C8.5662383,9.29430049 9.01414105,7.12224224 10.5254706,5.6109127 C12.3055793,3.83080396 15.0023261,3.52600195 17.0963406,4.69650666 Z M11.2325774,6.31801948 C10.0242982,7.52629861 9.61653328,9.2920874 10.1332274,10.8895046 L10.3215408,11.4716967 L5.29289322,16.5003443 C4.90236893,16.8908686 4.90236893,17.5240336 5.29289322,17.9145579 L6,18.6216647 C6.39052429,19.012189 7.02368927,19.012189 7.41421356,18.6216647 L12.4428612,13.5930171 L13.0250533,13.7813305 C14.6224705,14.2980246 16.3882593,13.8902596 17.5965384,12.6819805 C18.6861152,11.5924037 19.1145798,10.0587968 18.8292042,8.62049731 L16.1821297,11.2675718 L12.6465958,7.73203789 L15.2934091,5.08522459 C13.8552912,4.80010556 12.3219849,5.22861196 11.2325774,6.31801948 Z" id="形状结合" fill="#000000" fill-rule="nonzero"></path>
    </g>
</svg>