<?xml version="1.0" encoding="UTF-8"?>
<svg width="24px" height="24px" viewBox="0 0 24 24" version="1.1" xmlns="http://www.w3.org/2000/svg" xmlns:xlink="http://www.w3.org/1999/xlink">
    <title>01_Common_Btn/2_Infrequently/common_playbackmode</title>
    <g id="01_Common_Btn/2_Infrequently/common_playbackmode" stroke="none" stroke-width="1" fill="none" fill-rule="evenodd">
        <rect id="矩形" x="0" y="0" width="24" height="24"></rect>
        <path d="M14.9999878,9.99994783 L8.99998779,9.99994783 L8.99998779,7.49994783 C8.99996079,7.29773746 8.87814002,7.11545 8.69132048,7.0380711 C8.50450094,6.96069219 8.28946562,7.003457 8.14646779,7.14642783 L7.14646779,8.14642783 L5.14646779,10.1464278 C5.05268815,10.2401683 5,10.3673311 5,10.4999278 C5,10.6325246 5.05268815,10.7596874 5.14646779,10.8534278 L7.14646779,12.8534278 L8.14646779,13.8534278 C8.28946047,13.9963935 8.50448609,14.0391609 8.69130201,13.9617922 C8.87811792,13.8844236 8.99994462,13.7021509 8.99998779,13.4999478 L8.99998779,10.9999478 L14.9999878,10.9999478 C16.656842,10.9999478 17.9999878,12.3430936 17.9999878,13.9999478 C17.9999878,15.6568021 16.656842,16.9999478 14.9999878,16.9999478 L10.9999878,16.9999478 L10.9999878,17.9999478 L14.9999878,17.9999478 C17.2091268,17.9999478 18.9999878,16.2090868 18.9999878,13.9999478 C18.9999878,11.7908088 17.2091268,9.99994783 14.9999878,9.99994783 Z" id="Color" fill="#000000" fill-rule="nonzero"></path>
    </g>
</svg>