<?xml version="1.0" encoding="UTF-8"?>
<svg width="24px" height="24px" viewBox="0 0 24 24" version="1.1" xmlns="http://www.w3.org/2000/svg" xmlns:xlink="http://www.w3.org/1999/xlink">
    <title>01_Common_Btn/1_Common/common_zoom_in</title>
    <g id="01_Common_Btn/1_Common/common_zoom_in" stroke="none" stroke-width="1" fill="none" fill-rule="evenodd">
        <rect id="矩形" x="0" y="0" width="24" height="24"></rect>
        <path d="M10.5,4 C14.0898509,4 17,6.91014913 17,10.5 C17,12.1149477 16.4110487,13.5923385 15.4362126,14.7291059 L19.5,18.7928932 C19.6952621,18.9881554 19.6952621,19.3047379 19.5,19.5 C19.3047379,19.6952621 18.9881554,19.6952622 18.7928932,19.5 L14.7291058,15.4362127 C13.5923384,16.4110488 12.1149477,17 10.5,17 C6.91014913,17 4,14.0898509 4,10.5 C4,6.91014913 6.91014913,4 10.5,4 Z M10.5,5 C7.46243388,5 5,7.46243388 5,10.5 C5,13.5375661 7.46243388,16 10.5,16 C13.5375661,16 16,13.5375661 16,10.5 C16,7.46243388 13.5375661,5 10.5,5 Z M10.5,7 C10.7761424,7 11,7.22385763 11,7.5 L11,10 L13.5,10 C13.7761424,10 14,10.2238576 14,10.5 C14,10.7761424 13.7761424,11 13.5,11 L11,11 L11,13.5 C11,13.7761424 10.7761424,14 10.5,14 C10.2238576,14 10,13.7761424 10,13.5 L10,11 L7.5,11 C7.22385763,11 7,10.7761424 7,10.5 C7,10.2238576 7.22385763,10 7.5,10 L10,10 L10,7.5 C10,7.22385763 10.2238576,7 10.5,7 Z" id="Color" fill="#000000" fill-rule="nonzero"></path>
    </g>
</svg>